<svg xmlns="http://www.w3.org/2000/svg" viewBox="0 0 1600 900" width="1600" height="900">
  <rect width="1600" height="900" fill="#14110f"/>
  <!-- courtyard walls -->
  <g fill="#1c1917" stroke="#3a322c">
    <rect x="100" y="200" width="1400" height="120"/>
    <rect x="100" y="580" width="1400" height="120"/>
  </g>
  <!-- battlements (top) -->
  <g fill="#292524">
    <rect x="120" y="180" width="40" height="40"/>
    <rect x="220" y="180" width="40" height="40"/>
    <rect x="320" y="180" width="40" height="40"/>
    <rect x="420" y="180" width="40" height="40"/>
    <rect x="520" y="180" width="40" height="40"/>
    <rect x="620" y="180" width="40" height="40"/>
    <rect x="720" y="180" width="40" height="40"/>
    <rect x="820" y="180" width="40" height="40"/>
    <rect x="920" y="180" width="40" height="40"/>
    <rect x="1020" y="180" width="40" height="40"/>
    <rect x="1120" y="180" width="40" height="40"/>
    <rect x="1220" y="180" width="40" height="40"/>
    <rect x="1320" y="180" width="40" height="40"/>
    <rect x="1420" y="180" width="40" height="40"/>
  </g>
  <!-- braziers -->
  <g>
    <circle cx="400" cy="450" r="14" fill="#c8a14a" opacity="0.8"/>
    <circle cx="800" cy="450" r="14" fill="#c8a14a" opacity="0.8"/>
    <circle cx="1200" cy="450" r="14" fill="#c8a14a" opacity="0.8"/>
  </g>
  <text x="800" y="850" text-anchor="middle" font-family="Georgia, serif" font-size="24" fill="#5d564d">Frostbound Keep · courtyard</text>
</svg>
